HIERARCHY
ROOT Hips
{
	OFFSET 0.000000 0.000000 0.000000
	CHANNELS 6 Xposition Yposition Zposition Yrotation Xrotation Zrotation
	JOINT Chest
	{
		OFFSET 0.000000 -0.009282 11.569106
		CHANNELS 6 Xposition Yposition Zposition Yrotation Xrotation Zrotation
		JOINT Chest2
		{
			OFFSET -0.000000 0.016863 9.269641
			CHANNELS 6 Xposition Yposition Zposition Yrotation Xrotation Zrotation
			JOINT Chest3
			{
				OFFSET -0.000000 0.000000 8.374491
				CHANNELS 6 Xposition Yposition Zposition Yrotation Xrotation Zrotation
				JOINT Chest4
				{
					OFFSET -0.000000 0.000000 8.374493
					CHANNELS 6 Xposition Yposition Zposition Yrotation Xrotation Zrotation
					JOINT Neck
					{
						OFFSET -0.000000 0.000001 12.152554
						CHANNELS 6 Xposition Yposition Zposition Yrotation Xrotation Zrotation
						JOINT Head
						{
							OFFSET -0.000000 0.040100 7.802319
							CHANNELS 6 Xposition Yposition Zposition Yrotation Xrotation Zrotation
							End Site
							{
								OFFSET -0.000000 0.020946 14.853096
							}
						}
					}
					JOINT RightCollar
					{
						OFFSET 2.894404 0.000001 6.791374
						CHANNELS 6 Xposition Yposition Zposition Yrotation Xrotation Zrotation
						JOINT RightShoulder
						{
							OFFSET 13.574684 0.000001 0.000000
							CHANNELS 6 Xposition Yposition Zposition Yrotation Xrotation Zrotation
							JOINT RightElbow
							{
								OFFSET 23.923903 0.000002 0.000000
								CHANNELS 6 Xposition Yposition Zposition Yrotation Xrotation Zrotation
								JOINT RightWrist
								{
									OFFSET 19.846718 0.012767 0.000000
									CHANNELS 6 Xposition Yposition Zposition Yrotation Xrotation Zrotation
									End Site
									{
										OFFSET 14.973145 0.000001 0.000000
									}
								}
							}
						}
					}
					JOINT LeftCollar
					{
						OFFSET -2.894404 0.000000 6.791374
						CHANNELS 6 Xposition Yposition Zposition Yrotation Xrotation Zrotation
						JOINT LeftShoulder
						{
							OFFSET -13.574684 -0.000001 0.000000
							CHANNELS 6 Xposition Yposition Zposition Yrotation Xrotation Zrotation
							JOINT LeftElbow
							{
								OFFSET -23.923903 -0.000002 0.000000
								CHANNELS 6 Xposition Yposition Zposition Yrotation Xrotation Zrotation
								JOINT LeftWrist
								{
									OFFSET -19.846718 0.012763 0.000000
									CHANNELS 6 Xposition Yposition Zposition Yrotation Xrotation Zrotation
									End Site
									{
										OFFSET -14.973145 -0.000001 0.000000
									}
								}
							}
						}
					}
				}
			}
		}
	}
	JOINT RightHip
	{
		OFFSET 9.469263 0.004643 0.045487
		CHANNELS 6 Xposition Yposition Zposition Yrotation Xrotation Zrotation
		JOINT RightKnee
		{
			OFFSET 0.000000 0.002666 -40.478676
			CHANNELS 6 Xposition Yposition Zposition Yrotation Xrotation Zrotation
			JOINT RightAnkle
			{
				OFFSET 0.000000 0.049110 -35.224068
				CHANNELS 6 Xposition Yposition Zposition Yrotation Xrotation Zrotation
				JOINT RightToe
				{
					OFFSET -0.000001 12.539530 -6.151390
					CHANNELS 6 Xposition Yposition Zposition Yrotation Xrotation Zrotation
					End Site
					{
						OFFSET -0.000001 5.044996 -1.291870
					}
				}
			}
		}
	}
	JOINT LeftHip
	{
		OFFSET -9.469263 0.004641 0.045487
		CHANNELS 6 Xposition Yposition Zposition Yrotation Xrotation Zrotation
		JOINT LeftKnee
		{
			OFFSET 0.000000 0.002666 -40.478676
			CHANNELS 6 Xposition Yposition Zposition Yrotation Xrotation Zrotation
			JOINT LeftAnkle
			{
				OFFSET 0.000000 0.049110 -35.224068
				CHANNELS 6 Xposition Yposition Zposition Yrotation Xrotation Zrotation
				JOINT LeftToe
				{
					OFFSET -0.000001 12.539530 -6.151390
					CHANNELS 6 Xposition Yposition Zposition Yrotation Xrotation Zrotation
					End Site
					{
						OFFSET -0.000001 5.044996 -1.291870
					}
				}
			}
		}
	}
}
MOTION
Frames: 6
Frame Time: 0.016667
5.851942 3.208682 83.056114 -12.713746 -2.298649 -100.619895 -0.000001 -0.009281 11.569090 0.387690 -2.091736 0.621621 -0.000001 0.016867 9.269633 0.151497 -0.911617 0.288679 0.000000 0.000002 8.374475 0.151497 -0.911619 0.288680 -0.000001 0.000000 8.374497 0.114052 -0.683642 0.216732 0.000000 0.000003 12.152557 5.739405 -23.540068 -10.663214 0.000001 0.040110 7.802323 7.557292 -7.405463 -17.676772 2.894404 0.000002 6.791371 1.786245 -3.552839 -10.089884 13.574686 0.000003 0.000008 57.226812 7.206959 38.460570 23.923897 -0.000007 -0.000010 73.288012 -41.511523 51.391651 19.846722 0.012766 0.000005 30.152195 25.845800 -41.485845 -2.894404 0.000002 6.791369 -4.478738 -2.385541 -7.279622 -13.574686 0.000000 0.000002 -53.927028 -6.529079 -46.003185 -23.923904 -0.000006 0.000005 -16.102644 -10.566400 -46.764813 -19.846716 0.012768 0.000002 -10.292158 -1.489714 -0.694674 9.469263 0.004642 0.045472 1.396656 -15.783430 -14.179884 0.000068 0.002665 -40.478642 -2.787202 0.874025 -1.498319 0.000071 0.049103 -35.223949 3.187475 2.791178 -1.406441 -0.000005 12.539529 -6.151397 -0.040210 -0.107056 0.084226 -9.469264 0.004641 0.045474 0.238042 -15.026003 -25.053820 -0.000853 0.002526 -40.478588 -1.053181 2.297233 18.627580 -0.000981 0.048924 -35.223999 0.814337 1.406867 21.550463 0.000000 12.539534 -6.151392 -0.154740 -0.016949 -0.046377 
5.796620 3.219917 83.052902 -12.545894 -2.306289 -100.648664 -0.000000 -0.009286 11.569096 0.296413 -2.142703 0.721312 -0.000001 0.016865 9.269631 0.119034 -0.934316 0.332568 -0.000001 0.000005 8.374477 0.119034 -0.934315 0.332568 -0.000001 0.000001 8.374503 0.089782 -0.700672 0.249602 -0.000000 0.000002 12.152554 5.857331 -23.040678 -10.683907 0.000000 0.040100 7.802331 7.712396 -6.472225 -17.677793 2.894404 0.000002 6.791369 2.061229 -3.552736 -10.330030 13.574685 0.000002 0.000004 58.772118 7.106791 39.635704 23.923897 0.000010 -0.000001 77.368674 -38.151231 51.066866 19.846720 0.012780 0.000006 29.602590 25.965709 -31.070548 -2.894405 0.000001 6.791372 -4.344767 -2.604594 -7.458106 -13.574685 -0.000002 0.000003 -53.701669 -6.138698 -45.670046 -23.923897 -0.000010 0.000011 -18.031025 -12.002807 -47.457800 -19.846716 0.012760 -0.000000 -17.120557 -13.154447 13.701030 9.469264 0.004641 0.045486 1.456159 -15.639608 -14.165244 0.000073 0.002664 -40.478638 -2.821507 1.015732 -1.612371 0.000067 0.049104 -35.223938 3.275535 2.706191 -1.294134 -0.000003 12.539528 -6.151395 -0.083260 -0.119797 0.083882 -9.469263 0.004639 0.045484 0.277073 -14.817081 -24.981560 -0.000848 0.002527 -40.478577 -1.083868 2.291212 18.451172 -0.000984 0.048923 -35.223991 0.870850 1.387810 21.625011 0.000002 12.539532 -6.151394 -0.153626 -0.037698 -0.042268 
5.751111 3.231328 83.053436 -12.400986 -2.299971 -100.563450 -0.000001 -0.009281 11.569095 0.207983 -2.199588 0.835045 -0.000000 0.016861 9.269644 0.082453 -0.960685 0.381375 0.000000 -0.000002 8.374488 0.082453 -0.960684 0.381374 -0.000000 0.000001 8.374500 0.062438 -0.720463 0.286155 0.000001 0.000001 12.152540 6.052598 -22.509049 -10.790370 0.000000 0.040098 7.802295 7.981281 -5.474493 -17.811981 2.894404 0.000000 6.791372 2.300976 -3.409893 -10.521067 13.574687 0.000001 -0.000000 60.460165 8.250244 40.815954 23.923889 -0.000007 -0.000001 81.533573 -34.350633 49.751125 19.846725 0.012777 -0.000003 27.973250 27.840324 -19.716688 -2.894403 0.000000 6.791374 -4.292458 -2.623500 -7.633865 -13.574678 -0.000002 -0.000007 -54.348758 -6.221947 -45.442765 -23.923901 -0.000002 0.000012 -20.316186 -13.190524 -48.558861 -19.846722 0.012770 0.000015 -32.161192 -19.075106 32.852100 9.469262 0.004642 0.045474 1.536912 -15.562362 -14.163750 0.000082 0.002664 -40.478619 -2.855768 1.216173 -1.802999 0.000064 0.049104 -35.223957 3.350434 2.593707 -1.230663 -0.000005 12.539528 -6.151394 -0.105373 -0.115728 0.096231 -9.469263 0.004641 0.045479 0.337004 -14.655337 -24.942695 -0.000840 0.002528 -40.478584 -1.103665 2.358100 18.314266 -0.000979 0.048923 -35.224003 0.900431 1.329276 21.543882 0.000000 12.539534 -6.151391 -0.129917 -0.052592 -0.036931 
5.722980 3.242576 83.054123 -12.263547 -2.255223 -100.363080 0.000000 -0.009283 11.569103 0.160771 -2.203791 0.876554 -0.000000 0.016864 9.269631 0.061992 -0.963072 0.399414 0.000000 0.000001 8.374493 0.061992 -0.963072 0.399414 -0.000000 0.000002 8.374500 0.047123 -0.722264 0.299651 -0.000000 0.000005 12.152561 6.208820 -22.075219 -10.912536 -0.000001 0.040099 7.802323 8.185784 -4.661584 -17.985908 2.894404 0.000001 6.791370 2.382613 -3.294340 -10.595799 13.574685 0.000001 -0.000008 61.302457 8.959834 41.462759 23.923891 0.000003 -0.000014 83.679202 -30.937998 49.629790 19.846720 0.012762 -0.000002 25.588771 31.099491 -6.693818 -2.894404 0.000000 6.791368 -4.405720 -2.707549 -7.762305 -13.574688 -0.000001 -0.000002 -55.482938 -6.560585 -45.408071 -23.923893 -0.000009 -0.000001 -21.047505 -15.258810 -50.222620 -19.846720 0.012767 -0.000004 -47.721695 -12.314222 49.912540 9.469265 0.004643 0.045484 1.614118 -15.536051 -14.202741 0.000092 0.002664 -40.478607 -2.887331 1.469725 -2.036955 0.000062 0.049105 -35.223957 3.423050 2.479244 -1.196522 -0.000007 12.539528 -6.151400 -0.118600 -0.110547 0.107943 -9.469264 0.004642 0.045488 0.392785 -14.518330 -24.949781 -0.000836 0.002531 -40.478580 -1.108241 2.477260 18.170844 -0.000982 0.048922 -35.224010 0.906669 1.244036 21.507255 0.000002 12.539531 -6.151390 -0.095474 -0.062034 -0.033981 
5.707866 3.254710 83.051735 -12.109999 -2.167899 -100.066144 0.000000 -0.009285 11.569105 0.147576 -2.157586 0.867620 0.000000 0.016864 9.269636 0.055456 -0.944974 0.391747 -0.000000 0.000002 8.374496 0.055456 -0.944973 0.391747 -0.000000 -0.000001 8.374514 0.042197 -0.708693 0.293888 0.000000 0.000002 12.152545 6.251061 -21.756103 -11.023335 -0.000001 0.040092 7.802305 8.199485 -4.071090 -18.172615 2.894404 -0.000000 6.791372 2.366977 -3.411563 -10.585721 13.574687 0.000002 0.000005 61.128369 8.847916 41.735967 23.923906 0.000002 -0.000010 81.113824 -28.987579 51.434210 19.846720 0.012776 0.000000 19.794505 31.062713 7.964641 -2.894404 -0.000001 6.791367 -4.580706 -2.926757 -7.966777 -13.574686 -0.000002 0.000013 -56.304849 -6.796791 -45.365662 -23.923906 -0.000001 -0.000006 -22.659547 -17.119032 -51.676819 -19.846724 0.012779 0.000012 -53.552870 2.487819 57.230124 9.469264 0.004640 0.045481 1.662966 -15.518048 -14.252768 0.000102 0.002663 -40.478588 -2.896600 1.741591 -2.284892 0.000064 0.049104 -35.223961 3.484903 2.378500 -1.235678 -0.000006 12.539526 -6.151403 -0.125094 -0.107617 0.112159 -9.469261 0.004638 0.045488 0.428837 -14.363779 -24.992852 -0.000828 0.002532 -40.478577 -1.104399 2.614159 18.000402 -0.000976 0.048923 -35.223999 0.894156 1.146469 21.442402 -0.000000 12.539530 -6.151394 -0.053717 -0.067672 -0.031817 
5.699546 3.270412 83.048164 -11.949863 -2.060785 -99.704513 0.000000 -0.009281 11.569111 0.146424 -2.070164 0.827652 -0.000001 0.016864 9.269642 0.053948 -0.912541 0.365680 0.000000 -0.000000 8.374488 0.053949 -0.912541 0.365680 -0.000000 -0.000002 8.374501 0.041006 -0.684374 0.274334 -0.000001 0.000002 12.152562 6.168339 -21.532139 -11.101418 0.000000 0.040103 7.802310 8.006169 -3.667606 -18.337256 2.894404 -0.000000 6.791374 2.373259 -3.520190 -10.519479 13.574682 0.000000 0.000007 60.484651 9.026087 41.872212 23.923910 -0.000006 -0.000002 72.418051 -27.637505 53.959649 19.846714 0.012755 -0.000000 9.606038 28.511187 19.324147 -2.894404 -0.000001 6.791368 -4.661416 -3.325313 -8.187088 -13.574681 0.000000 0.000000 -56.379899 -6.801408 -45.140734 -23.923893 0.000002 0.000002 -26.926723 -17.510365 -52.772473 -19.846724 0.012760 0.000001 -55.905375 11.957632 56.358094 9.469264 0.004645 0.045496 1.700165 -15.486687 -14.274043 0.000115 0.002662 -40.478580 -2.902005 1.981897 -2.564306 0.000067 0.049105 -35.223961 3.537761 2.295241 -1.306463 -0.000006 12.539529 -6.151398 -0.123518 -0.097713 0.113710 -9.469262 0.004643 0.045490 0.448768 -14.192649 -25.044473 -0.000818 0.002535 -40.478577 -1.090600 2.743376 17.810820 -0.000962 0.048931 -35.224014 0.852367 1.036019 21.150128 -0.000001 12.539530 -6.151395 -0.004990 -0.062082 -0.029503 
